<svg xmlns="http://www.w3.org/2000/svg" viewBox="0 0 64 64">
  <defs>
    <linearGradient id="g1" x1="0" y1="0" x2="1" y2="1">
      <stop offset="0%" stop-color="#00e676"/>
      <stop offset="100%" stop-color="#00b0ff"/>
    </linearGradient>
  </defs>
  <!-- Fondo circular oscuro -->
  <circle cx="32" cy="32" r="30" fill="#1a1a2e"/>
  <circle cx="32" cy="32" r="28" fill="none" stroke="url(#g1)" stroke-width="2" opacity="0.6"/>
  <!-- Ondas de radio -->
  <path d="M32 38 Q26 32 32 26" fill="none" stroke="#00e676" stroke-width="2" stroke-linecap="round" opacity="0.4"/>
  <path d="M32 42 Q22 32 32 22" fill="none" stroke="#00e676" stroke-width="2" stroke-linecap="round" opacity="0.3"/>
  <path d="M32 46 Q18 32 32 18" fill="none" stroke="#00e676" stroke-width="2" stroke-linecap="round" opacity="0.2"/>
  <path d="M32 38 Q38 32 32 26" fill="none" stroke="#00b0ff" stroke-width="2" stroke-linecap="round" opacity="0.4"/>
  <path d="M32 42 Q42 32 32 22" fill="none" stroke="#00b0ff" stroke-width="2" stroke-linecap="round" opacity="0.3"/>
  <path d="M32 46 Q46 32 32 18" fill="none" stroke="#00b0ff" stroke-width="2" stroke-linecap="round" opacity="0.2"/>
  <!-- Antena central -->
  <line x1="32" y1="50" x2="32" y2="28" stroke="url(#g1)" stroke-width="3" stroke-linecap="round"/>
  <line x1="32" y1="28" x2="22" y2="18" stroke="#00e676" stroke-width="2.5" stroke-linecap="round"/>
  <line x1="32" y1="28" x2="42" y2="18" stroke="#00b0ff" stroke-width="2.5" stroke-linecap="round"/>
  <!-- Puntas de antena -->
  <circle cx="22" cy="18" r="2" fill="#00e676"/>
  <circle cx="42" cy="18" r="2" fill="#00b0ff"/>
  <!-- Punto central brillante -->
  <circle cx="32" cy="32" r="3" fill="url(#g1)" opacity="0.8"/>
</svg>
